<svg width="146" height="48" viewBox="0 0 146 48" fill="none" xmlns="http://www.w3.org/2000/svg">
  <rect x="1.5" y="1.5" width="143" height="45" rx="22.5" fill="#FFFFFF" stroke="#4B5563" stroke-width="3"/>
  <path d="M31 23.9h11.5c0 6.5-4.6 11.2-11.4 11.2-6.6 0-12-5.2-12-11.7s5.4-11.7 12-11.7c3.5 0 6.4 1.4 8.6 3.5l-3.4 3.3c-1.2-1.1-2.9-2-5.2-2-4.4 0-7.9 3.5-7.9 7.9s3.5 7.9 7.9 7.9c2.9 0 4.4-1.2 5.4-2.2.8-.8 1.3-1.9 1.5-3.5H31v-4.7z" fill="#4285F4"/>
  <text x="53" y="31" fill="#4B5563" font-family="Arial, Helvetica, sans-serif" font-size="24" font-weight="500">Pay</text>
</svg>
